General
Unique ID : 223151192987744056266363777568538718307 (0xA7E15B419F9505B9AF28EEAE6EE97063)
Complete name : D:FilmyFilmy 3DSzablonWstawkaWRECK_IT_RALPH_3D_miniPL(LEON_345)WRECK_IT_RALPH_3D(LEON_345).mkv
Format : Matroska
Format version : Version 2
File size : 3.97 GiB
Duration : 1h 41mn
Overall bit rate mode : Variable
Overall bit rate : 5 608 Kbps
Encoded date : UTC 2013-03-01 22:38:28
Writing application : mkvmerge v5.7.0 ('The Whirlwind') built on Jul 8 2012 20:08:51
Writing library : libebml v1.2.3 + libmatroska v1.3.0

Video
ID : 1
Format : AVC
Format/Info : Advanced Video Codec
Format profile : High@L4.0
Format settings, CABAC : Yes
Format settings, ReFrames : 2 frames
Codec ID : V_MPEG4/ISO/AVC
Duration : 1h 41mn
Bit rate mode : Variable
Bit rate : 4 775 Kbps
Maximum bit rate : 15.0 Mbps
Width : 1 920 pixels
Height : 1 080 pixels
Display aspect ratio : 16:9
Frame rate mode : Constant
Frame rate : 23.976 fps
Color space : YUV
Chroma subsampling : 4:2:0
Bit depth : 8 bits
Scan type : Progressive
Bits/(Pixel*Frame) : 0.096
Stream size : 3.30 GiB (83%)
Title : Rip by Leon 345 encoding 2 pass
Writing library : x264 core 129 r2230 1cffe9f
Default : Yes
Forced : No

Audio #1
ID : 2
Format : AC-3
Format/Info : Audio Coding 3
Mode extension : CM (complete main)
Format settings, Endianness : Big
Codec ID : A_AC3
Duration : 1h 41mn
Bit rate mode : Constant
Bit rate : 448 Kbps
Channel(s) : 6 channels
Channel positions : Front: L C R, Side: L R, LFE
Sampling rate : 48.0 KHz
Bit depth : 16 bits
Compression mode : Lossy
Delay relative to video : 300ms
Stream size : 324 MiB (8%)
Title : AC3 5.1 dubbing PL
Language : Polish
Default : Yes
Forced : Yes

Audio #2
ID : 3
Format : AC-3
Format/Info : Audio Coding 3
Mode extension : CM (complete main)
Format settings, Endianness : Big
Codec ID : A_AC3
Duration : 1h 41mn
Bit rate mode : Constant
Bit rate : 384 Kbps
Channel(s) : 6 channels
Channel positions : Front: L C R, Side: L R, LFE
Sampling rate : 48.0 KHz
Bit depth : 16 bits
Compression mode : Lossy
Delay relative to video : 200ms
Stream size : 278 MiB (7%)
Title : AC3 5.1 Orginal
Language : English
Default : No
Forced : No